<svg height="1000" viewBox="0 0 1000 1000" width="1000" xmlns="http://www.w3.org/2000/svg"><circle cx="506" cy="508" fill="#ffe3e1" r="212"/><circle cx="505.89" cy="490" fill="#fff" r="195.5"/><path d="m505.89 297.5a192 192 0 1 1 -74.89 15.13 191.24 191.24 0 0 1 74.92-15.13m0-6c-109.63 0-198.5 88.87-198.5 198.5s88.87 198.5 198.5 198.5 198.5-88.87 198.5-198.5-88.87-198.5-198.5-198.5z" fill="#f7a094"/><path d="m564 524a100.88 100.88 0 0 1 -13.65-.93 100.24 100.24 0 0 1 -85.81-112.85c6.74-49.45 49.38-86.73 99.2-86.73a102.66 102.66 0 0 1 13.66.92 100.36 100.36 0 0 1 85.8 112.86c-6.71 49.45-49.36 86.73-99.2 86.73z" fill="#9b4b3d"/><path d="m563.77 326.5a98.18 98.18 0 0 1 13.24.9 97.25 97.25 0 0 1 -13.01 193.6 98.32 98.32 0 0 1 -13.25-.9 97.25 97.25 0 0 1 13-193.61m0-6a103.25 103.25 0 0 0 -13.75 205.57 104.77 104.77 0 0 0 14 .94 103.25 103.25 0 0 0 13.8-205.56 104.66 104.66 0 0 0 -14.06-.95z"/><circle cx="567.54" cy="397" r="20.65"/><circle cx="557.1" cy="386.43" fill="#fff" r="6.31"/></svg>