<svg xmlns="http://www.w3.org/2000/svg" width="1000" height="1000" viewBox="0 0 1000 1000"><defs><style>.a{fill:#ffe3e1;}.b{fill:#fff;}.c{fill:#f7a094;}.d{fill:#9b4b3d;}</style></defs><circle class="a" cx="506" cy="508" r="212"/><circle class="b" cx="505.89" cy="490" r="195.5"/><path class="c" d="M505.89,297.5A192,192,0,1,1,431,312.63a191.24,191.24,0,0,1,74.92-15.13m0-6c-109.63,0-198.5,88.87-198.5,198.5s88.87,198.5,198.5,198.5,198.5-88.87,198.5-198.5-88.87-198.5-198.5-198.5Z"/><path class="d" d="M564,524a100.88,100.88,0,0,1-13.65-.93,100.24,100.24,0,0,1-85.81-112.85c6.74-49.45,49.38-86.73,99.2-86.73a102.66,102.66,0,0,1,13.66.92,100.36,100.36,0,0,1,85.8,112.86C656.49,486.72,613.84,524,564,524Z"/><path d="M563.77,326.5a98.18,98.18,0,0,1,13.24.9A97.25,97.25,0,0,1,564,521a98.32,98.32,0,0,1-13.25-.9,97.25,97.25,0,0,1,13-193.61h0m0-6A103.25,103.25,0,0,0,550,526.06,104.77,104.77,0,0,0,564,527a103.25,103.25,0,0,0,13.8-205.56,104.66,104.66,0,0,0-14.06-.95Z"/><circle cx="567.54" cy="397" r="20.65"/><circle class="b" cx="557.1" cy="386.43" r="6.31"/></svg>