<svg xmlns="http://www.w3.org/2000/svg" width="1000" height="1000" viewBox="0 0 1000 1000"><defs><style>.a{fill:#c4f7ee;}.b{fill:#fff;}.c{fill:#9aefdf;}.d{fill:#1a5c52;}</style></defs><circle class="a" cx="492" cy="494" r="212"/><circle class="b" cx="505.89" cy="490" r="195.5"/><path class="c" d="M505.89,297.5A192,192,0,1,1,431,312.63a191.24,191.24,0,0,1,74.92-15.13m0-6c-109.63,0-198.5,88.87-198.5,198.5s88.87,198.5,198.5,198.5,198.5-88.87,198.5-198.5-88.87-198.5-198.5-198.5Z"/><path class="d" d="M445,656c-2.5,0-5-.09-7.55-.28a100.25,100.25,0,0,1,7.33-200.22c2.51,0,5.05.1,7.55.28A100.25,100.25,0,0,1,445,656Z"/><path d="M444.79,452.5v6c2.42,0,4.89.1,7.32.28A97.24,97.24,0,0,1,445,653c-2.43,0-4.89-.09-7.32-.27a97.25,97.25,0,0,1,7.1-194.23v-6m0,0a103.25,103.25,0,0,0-7.55,206.22q3.91.28,7.77.28a103.25,103.25,0,0,0,7.55-206.21c-2.61-.19-5.19-.29-7.77-.29Z"/><circle cx="417.97" cy="553.75" r="20.65"/><circle class="b" cx="408.05" cy="564.81" r="6.31"/></svg>